<svg version="1.1" id="Layer_1" xmlns="http://www.w3.org/2000/svg" xmlns:xlink="http://www.w3.org/1999/xlink" x="0px" y="0px"
	 width="100%" viewBox="0 0 512 512" enable-background="new 0 0 512 512" xml:space="preserve">
<path fill="#000000" opacity="1.000000" stroke="none" 
	d="
M1.000008,405.000000 
	C1.000000,270.333313 1.000000,135.666641 1.000000,1.000000 
	C16.759733,1.000000 32.411209,1.000000 48.839264,1.281800 
	C49.006237,2.055677 48.439152,2.615361 47.780563,3.029551 
	C39.687847,8.119105 35.894951,15.348371 35.946072,24.986267 
	C36.097095,53.459335 35.973804,81.933762 36.012489,110.407578 
	C36.028427,122.137695 45.873535,131.970352 57.631866,131.990723 
	C77.280441,132.024780 96.929153,132.021500 116.577751,131.994827 
	C144.381714,131.957108 172.185623,131.883850 200.452255,131.906265 
	C204.410263,131.991211 207.935501,132.286819 211.393799,131.931229 
	C216.456818,131.410629 220.069168,133.294373 223.542007,136.918198 
	C232.867249,146.648819 242.425751,156.164825 252.160278,165.485474 
	C253.784790,167.040909 256.756348,167.189453 259.105438,167.988113 
	C259.736847,165.929428 260.860992,163.883148 260.913177,161.809875 
	C261.122559,153.492859 261.075348,145.166382 260.957092,136.845764 
	C260.917755,134.079727 261.441956,132.706909 264.548309,131.623779 
	C278.265167,126.840996 281.561920,119.309654 281.820679,107.114746 
	C282.396118,79.996254 282.143555,52.855995 281.924133,25.727072 
	C281.844971,15.937020 278.315521,7.653115 268.915955,2.912520 
	C268.416229,2.660496 268.296600,1.654822 268.000000,0.999998 
	C349.603485,1.000000 431.207001,1.000000 513.000000,1.000000 
	C513.000000,107.687485 513.000000,214.375092 512.637329,321.677856 
	C511.843750,321.644562 511.284271,321.047546 511.000885,320.339966 
	C506.267120,308.519867 498.825439,298.576538 486.802734,294.193359 
	C470.531433,288.261139 453.681549,283.915985 437.056824,278.918762 
	C437.033813,278.947571 437.097229,278.983612 436.996094,278.741394 
	C436.603210,278.325714 436.311432,278.152313 435.825592,277.691681 
	C432.448303,275.797180 429.305878,274.101929 426.071930,272.604218 
	C421.743561,270.599670 417.381287,270.044434 413.081482,272.490662 
	C412.955505,262.020142 412.898254,252.010727 412.994659,241.681213 
	C427.384369,232.308929 435.301697,219.182922 437.985382,202.717941 
	C438.634155,198.737656 438.923401,195.088226 444.534760,194.575409 
	C447.793915,194.277557 449.999908,191.215225 449.988678,187.460495 
	C449.968353,180.665314 449.883240,173.870331 449.901794,166.605499 
	C449.985565,154.001602 450.002808,141.867462 449.996368,129.733337 
	C449.992096,121.652992 443.521027,114.616524 435.566223,114.001793 
	C428.936615,113.489464 427.628357,112.187958 426.998901,105.478378 
	C426.327759,98.324272 420.382233,92.192085 413.388947,92.060173 
	C403.922943,91.881622 394.449127,92.116142 384.516663,92.098831 
	C373.231415,92.016151 362.401306,92.251694 351.586456,91.946579 
	C332.309113,91.402710 315.258057,107.678993 314.149017,127.618927 
	C313.420074,140.725342 314.116394,153.911057 314.098724,167.520538 
	C314.015198,173.968094 313.777618,179.967743 314.073883,185.940933 
	C314.301941,190.539383 316.231445,194.138031 321.463531,195.065933 
	C323.836639,195.486816 326.229095,196.230057 326.076874,199.682404 
	C325.986237,201.738495 326.582458,203.845520 327.010315,205.900421 
	C329.471008,217.718323 335.118683,227.574951 344.044006,235.888748 
	C346.889313,238.539154 352.140167,239.484741 352.034485,245.014984 
	C351.856598,254.324356 351.899597,263.637939 351.509155,272.793640 
	C341.832336,268.664246 334.852936,273.537689 327.578125,278.889893 
	C326.198578,279.089417 325.181458,279.079346 324.251801,279.359528 
	C311.597412,283.173981 299.113770,287.703430 286.274139,290.721161 
	C265.009674,295.718994 250.579071,316.134979 250.918686,337.040253 
	C251.243240,357.019257 250.895676,377.009125 250.544037,396.838318 
	C249.491196,395.430511 248.818268,394.121216 247.971863,392.935791 
	C241.312622,383.609375 232.818695,377.044373 221.249435,374.929840 
	C213.744583,373.558167 206.305206,371.830780 198.807388,370.417297 
	C185.231796,367.858032 171.634460,365.414154 158.026169,362.466797 
	C157.993027,358.036194 157.979904,354.060883 158.401627,350.054565 
	C171.518829,346.694489 184.515305,344.230438 196.788223,339.773865 
	C207.380081,335.927704 212.795273,326.730438 215.125397,315.623932 
	C217.062607,306.390228 215.431961,297.501740 213.237274,288.754150 
	C209.816971,275.121338 206.492783,261.565826 206.919907,247.346558 
	C207.048111,243.078873 206.623810,238.725937 205.882538,234.512375 
	C202.227295,213.735382 193.101257,195.953522 175.754456,183.367477 
	C151.367264,165.673203 125.043793,162.056778 96.627075,173.980438 
	C85.061249,178.923447 75.594231,185.962997 67.843819,195.540863 
	C56.374969,209.713928 50.657860,225.671005 49.806309,243.917007 
	C49.250992,255.815536 47.504761,267.767487 45.061893,279.438019 
	C42.654736,290.937958 39.982521,302.299835 41.046204,314.111969 
	C41.799187,322.473724 45.541348,329.724976 52.024330,334.846466 
	C65.424141,345.432281 81.908752,347.387848 98.028091,350.517395 
	C97.995743,354.954742 97.988281,358.936218 97.553856,362.952942 
	C92.489586,363.785095 87.841331,364.523468 83.217072,365.389923 
	C69.824547,367.899200 56.485950,370.729797 43.044357,372.935577 
	C24.128679,376.039673 9.975532,385.020264 2.941505,403.553223 
	C2.700024,404.189453 1.665106,404.524567 1.000008,405.000000 
z"/>
<path fill="#E28086" opacity="1.000000" stroke="none" 
	d="
M1.000008,405.468689 
	C1.665106,404.524567 2.700024,404.189453 2.941505,403.553223 
	C9.975532,385.020264 24.128679,376.039673 43.044357,372.935577 
	C56.485950,370.729797 69.824547,367.899200 83.217072,365.389923 
	C87.841331,364.523468 92.489586,363.785095 97.863083,363.108643 
	C104.998718,375.562286 114.704964,382.811707 128.997711,383.402161 
	C128.872574,392.377869 139.347153,400.854187 147.476425,402.107483 
	C154.662033,403.215332 161.861465,404.858215 168.742310,407.187805 
	C182.965088,412.003021 189.995117,422.445374 190.000748,437.476654 
	C190.010071,462.308105 190.016815,487.139526 190.018372,512.228210 
	C190.008072,512.656982 190.004044,512.828491 190.000000,513.000000 
	C131.312439,513.000000 72.624878,513.000000 13.771111,512.717773 
	C9.766072,508.541840 5.934279,504.640961 2.060193,500.782532 
	C1.919034,500.641937 1.362799,500.918060 0.999998,501.000000 
	C1.000000,469.312439 1.000000,437.624878 1.000008,405.468689 
z"/>
<path fill="#CBE2FF" opacity="1.000000" stroke="none" 
	d="
M199.989563,131.825775 
	C172.185623,131.883850 144.381714,131.957108 116.577751,131.994827 
	C96.929153,132.021500 77.280441,132.024780 57.631866,131.990723 
	C45.873535,131.970352 36.028427,122.137695 36.012489,110.407578 
	C35.973804,81.933762 36.097095,53.459335 35.946072,24.986267 
	C35.894951,15.348371 39.687847,8.119105 47.780563,3.029551 
	C48.439152,2.615361 49.006237,2.055677 49.307922,1.281800 
	C99.020897,1.000000 149.041794,1.000000 199.600830,1.338432 
	C200.604523,2.108096 201.002060,2.671885 201.545746,2.950762 
	C210.264755,7.423075 215.089996,14.179197 215.044586,24.331352 
	C214.918030,52.625408 214.952194,80.920547 215.037628,109.214912 
	C215.056870,115.591431 213.086273,120.972694 208.285751,125.174377 
	C205.621109,127.506630 202.761368,129.615952 199.989563,131.825775 
z"/>
<path fill="#DDB7A0" opacity="1.000000" stroke="none" 
	d="
M439.000000,513.000000 
	C375.645782,513.000000 312.291534,513.000000 248.486282,512.763855 
	C248.035248,512.527710 248.088989,512.057068 248.436615,511.996582 
	C253.513992,510.200226 255.125793,506.653778 255.112717,501.817383 
	C255.041702,475.555542 255.209686,449.292328 254.990112,423.032135 
	C254.936539,416.625610 253.735931,410.228668 253.527252,403.826660 
	C287.892944,403.773926 321.794098,403.721802 356.184601,403.752014 
	C374.109039,403.789551 391.544128,403.744781 409.446777,403.742676 
	C422.662994,403.623291 435.411560,403.461273 448.144836,403.447296 
	C448.129547,403.595337 448.079498,403.888733 448.054443,404.366791 
	C448.019989,435.051758 447.776550,465.261627 448.158600,495.463593 
	C448.259613,503.448883 446.313232,509.369171 439.000000,513.000000 
z"/>
<path fill="#BED8FB" opacity="1.000000" stroke="none" 
	d="
M200.452255,131.906265 
	C202.761368,129.615952 205.621109,127.506630 208.285751,125.174377 
	C213.086273,120.972694 215.056870,115.591431 215.037628,109.214912 
	C214.952194,80.920547 214.918030,52.625408 215.044586,24.331352 
	C215.089996,14.179197 210.264755,7.423075 201.545746,2.950762 
	C201.002060,2.671885 200.604523,2.108096 200.069489,1.338432 
	C222.354233,1.000000 244.708450,1.000000 267.531342,0.999998 
	C268.296600,1.654822 268.416229,2.660496 268.915955,2.912520 
	C278.315521,7.653115 281.844971,15.937020 281.924133,25.727072 
	C282.143555,52.855995 282.396118,79.996254 281.820679,107.114746 
	C281.561920,119.309654 278.265167,126.840996 264.548309,131.623779 
	C261.441956,132.706909 260.917755,134.079727 260.957092,136.845764 
	C261.075348,145.166382 261.122559,153.492859 260.913177,161.809875 
	C260.860992,163.883148 259.736847,165.929428 259.105438,167.988113 
	C256.756348,167.189453 253.784790,167.040909 252.160278,165.485474 
	C242.425751,156.164825 232.867249,146.648819 223.542007,136.918198 
	C220.069168,133.294373 216.456818,131.410629 211.393799,131.931229 
	C207.935501,132.286819 204.410263,131.991211 200.452255,131.906265 
z"/>
<path fill="#407093" opacity="1.000000" stroke="none" 
	d="
M437.079865,278.889984 
	C453.681549,283.915985 470.531433,288.261139 486.802734,294.193359 
	C498.825439,298.576538 506.267120,308.519867 511.000885,320.339966 
	C511.284271,321.047546 511.843750,321.644562 512.637329,322.146515 
	C513.000000,349.020905 513.000000,376.041779 512.534668,403.468994 
	C490.739380,403.879761 469.409454,403.884247 448.079498,403.888733 
	C448.079498,403.888733 448.129547,403.595337 448.089478,403.041565 
	C448.032928,384.867218 448.035400,367.246521 447.973419,349.626068 
	C447.966492,347.656342 447.756317,345.655060 447.365387,343.724060 
	C443.818085,326.202484 433.489441,314.406342 417.003326,307.570221 
	C421.827393,302.208191 426.315918,296.874634 431.445801,292.252930 
	C435.601227,288.509155 437.902466,284.489258 437.079865,278.889984 
z"/>
<path fill="#D6A889" opacity="1.000000" stroke="none" 
	d="
M448.054443,404.366791 
	C469.409454,403.884247 490.739380,403.879761 512.534668,403.937622 
	C513.000000,436.020905 513.000000,468.041779 512.728516,500.227600 
	C508.220734,504.230133 503.978241,508.061035 499.776184,511.935760 
	C499.639679,512.061584 499.916077,512.635132 500.000000,513.000000 
	C479.979095,513.000000 459.958221,513.000000 439.468658,513.000000 
	C446.313232,509.369171 448.259613,503.448883 448.158600,495.463593 
	C447.776550,465.261627 448.019989,435.051758 448.054443,404.366791 
z"/>
<path fill="#000000" opacity="1.000000" stroke="none" 
	d="
M500.476654,513.000000 
	C499.916077,512.635132 499.639679,512.061584 499.776184,511.935760 
	C503.978241,508.061035 508.220734,504.230133 512.728516,500.696228 
	C513.000000,504.925995 513.000000,508.851959 513.000000,513.000000 
	C508.986084,513.000000 504.969696,513.000000 500.476654,513.000000 
z"/>
<path fill="#000000" opacity="1.000000" stroke="none" 
	d="
M0.999998,501.479187 
	C1.362799,500.918060 1.919034,500.641937 2.060193,500.782532 
	C5.934279,504.640961 9.766072,508.541840 13.302454,512.717773 
	C9.078021,513.000000 5.156042,513.000000 1.000000,513.000000 
	C1.000000,509.321411 1.000000,505.639893 0.999998,501.479187 
z"/>
<path fill="#DE787A" opacity="1.000000" stroke="none" 
	d="
M248.088989,512.057007 
	C248.088989,512.057068 248.035248,512.527710 248.017624,512.763855 
	C228.979111,513.000000 209.958206,513.000000 190.468658,513.000000 
	C190.004044,512.828491 190.008072,512.656982 190.484192,512.239014 
	C210.000534,512.014099 229.044754,512.035522 248.088989,512.057007 
z"/>
<path fill="#407093" opacity="1.000000" stroke="none" 
	d="
M98.052979,350.061523 
	C81.908752,347.387848 65.424141,345.432281 52.024330,334.846466 
	C45.541348,329.724976 41.799187,322.473724 41.046204,314.111969 
	C39.982521,302.299835 42.654736,290.937958 45.061893,279.438019 
	C47.504761,267.767487 49.250992,255.815536 49.806309,243.917007 
	C50.657860,225.671005 56.374969,209.713928 67.843819,195.540863 
	C75.594231,185.962997 85.061249,178.923447 96.684265,174.327393 
	C98.643188,175.792953 100.087318,177.144684 101.742859,178.147339 
	C128.565598,194.392288 140.877533,218.550751 141.071014,249.514496 
	C141.108047,255.443466 141.623581,261.449493 142.703156,267.274536 
	C144.692017,278.005920 147.700424,288.556549 149.491211,299.314484 
	C152.316895,316.289398 146.759842,333.071381 129.605881,340.114990 
	C123.799400,342.499176 117.677711,344.122986 111.680367,346.032379 
	C107.468872,347.373230 103.224022,348.609283 98.762695,349.955566 
	C98.531342,350.019043 98.052979,350.061523 98.052979,350.061523 
z"/>
<path fill="#4B80AA" opacity="1.000000" stroke="none" 
	d="
M355.695221,403.669708 
	C321.794098,403.721802 287.892944,403.773926 253.352417,403.519714 
	C252.089859,401.140320 251.466705,399.067261 250.843552,396.994232 
	C250.895676,377.009125 251.243240,357.019257 250.918686,337.040253 
	C250.579071,316.134979 265.009674,295.718994 286.274139,290.721161 
	C299.113770,287.703430 311.597412,283.173981 324.251801,279.359528 
	C325.181458,279.079346 326.198578,279.089417 327.582001,279.285156 
	C326.328644,284.125793 328.122162,287.602844 331.268036,290.729309 
	C337.980377,297.400269 344.456512,304.328430 351.459534,310.676697 
	C353.836487,312.831421 357.506226,313.560120 360.726318,315.286621 
	C364.347626,321.756378 367.827820,327.879974 371.199402,334.395477 
	C365.958954,357.748169 360.827087,380.708923 355.695221,403.669708 
z"/>
<path fill="#365E7D" opacity="1.000000" stroke="none" 
	d="
M98.994057,349.892120 
	C103.224022,348.609283 107.468872,347.373230 111.680367,346.032379 
	C117.677711,344.122986 123.799400,342.499176 129.605881,340.114990 
	C146.759842,333.071381 152.316895,316.289398 149.491211,299.314484 
	C147.700424,288.556549 144.692017,278.005920 142.703156,267.274536 
	C141.623581,261.449493 141.108047,255.443466 141.071014,249.514496 
	C140.877533,218.550751 128.565598,194.392288 101.742859,178.147339 
	C100.087318,177.144684 98.643188,175.792953 97.043510,174.256699 
	C125.043793,162.056778 151.367264,165.673203 175.754456,183.367477 
	C193.101257,195.953522 202.227295,213.735382 205.882538,234.512375 
	C206.623810,238.725937 207.048111,243.078873 206.919907,247.346558 
	C206.492783,261.565826 209.816971,275.121338 213.237274,288.754150 
	C215.431961,297.501740 217.062607,306.390228 215.125397,315.623932 
	C212.795273,326.730438 207.380081,335.927704 196.788223,339.773865 
	C184.515305,344.230438 171.518829,346.694489 157.980896,350.046295 
	C152.997437,350.560974 148.858841,351.545746 144.743500,351.456757 
	C129.489548,351.126831 114.243233,350.442993 98.994057,349.892120 
z"/>
<path fill="#DD636E" opacity="1.000000" stroke="none" 
	d="
M250.544037,396.838318 
	C251.466705,399.067261 252.089859,401.140320 252.887848,403.520325 
	C253.735931,410.228668 254.936539,416.625610 254.990112,423.032135 
	C255.209686,449.292328 255.041702,475.555542 255.112717,501.817383 
	C255.125793,506.653778 253.513992,510.200226 248.436615,511.996552 
	C229.044754,512.035522 210.000534,512.014099 190.490479,511.981812 
	C190.016815,487.139526 190.010071,462.308105 190.000748,437.476654 
	C189.995117,422.445374 182.965088,412.003021 168.742310,407.187805 
	C161.861465,404.858215 154.662033,403.215332 147.476425,402.107483 
	C139.347153,400.854187 128.872574,392.377869 129.394791,383.329651 
	C135.776260,380.620026 142.410751,379.340820 147.538605,375.848999 
	C151.936203,372.854492 154.610046,367.328552 158.046204,362.922119 
	C171.634460,365.414154 185.231796,367.858032 198.807388,370.417297 
	C206.305206,371.830780 213.744583,373.558167 221.249435,374.929840 
	C232.818695,377.044373 241.312622,383.609375 247.971863,392.935791 
	C248.818268,394.121216 249.491196,395.430511 250.544037,396.838318 
z"/>
<path fill="#FFDDCE" opacity="1.000000" stroke="none" 
	d="
M351.849670,272.949738 
	C351.899597,263.637939 351.856598,254.324356 352.034485,245.014984 
	C352.140167,239.484741 346.889313,238.539154 344.044006,235.888748 
	C335.118683,227.574951 329.471008,217.718323 327.010315,205.900421 
	C326.582458,203.845520 325.986237,201.738495 326.076874,199.682404 
	C326.229095,196.230057 323.836639,195.486816 321.463531,195.065933 
	C316.231445,194.138031 314.301941,190.539383 314.073883,185.940933 
	C313.777618,179.967743 314.015198,173.968094 314.554688,167.514954 
	C315.917755,167.048004 316.749146,167.044128 317.580505,167.044083 
	C335.649384,167.043030 336.601776,166.152161 337.985596,147.954712 
	C338.512177,141.030014 345.951324,135.402008 352.616425,137.472946 
	C362.858856,140.655411 373.238831,142.403580 383.964081,142.660294 
	C384.315094,162.879349 384.957062,182.643997 384.872772,202.405548 
	C384.828064,212.889603 383.060516,223.290115 376.854370,232.221588 
	C373.309662,237.322891 369.331116,242.122757 365.386963,247.268341 
	C373.351532,250.580765 381.668182,251.107895 389.752197,249.383591 
	C397.615570,247.706360 405.157745,244.523224 412.840973,242.001312 
	C412.898254,252.010727 412.955505,262.020142 412.954590,272.812439 
	C402.940460,281.462799 392.984497,289.330261 382.839783,297.134521 
	C382.651031,297.071259 382.252899,297.115417 382.028870,296.845520 
	C373.154907,290.103149 364.476654,283.667847 355.881439,277.123535 
	C354.360138,275.965240 353.184814,274.352570 351.849670,272.949738 
z"/>
<path fill="#FFCBBE" opacity="1.000000" stroke="none" 
	d="
M412.994659,241.681213 
	C405.157745,244.523224 397.615570,247.706360 389.752197,249.383591 
	C381.668182,251.107895 373.351532,250.580765 365.386963,247.268341 
	C369.331116,242.122757 373.309662,237.322891 376.854370,232.221588 
	C383.060516,223.290115 384.828064,212.889603 384.872772,202.405548 
	C384.957062,182.643997 384.315094,162.879349 384.225830,142.599564 
	C384.652863,142.053116 384.829010,142.023117 385.456787,142.003723 
	C393.894012,140.646317 401.984222,139.708221 409.837830,137.797546 
	C418.920227,135.587906 426.336823,140.436508 426.914886,149.808884 
	C427.027496,151.634583 426.918976,153.472900 426.951935,155.304688 
	C427.085571,162.733093 431.322083,166.931732 438.831696,167.040298 
	C442.495605,167.093277 446.160675,167.066132 449.825226,167.075256 
	C449.883240,173.870331 449.968353,180.665314 449.988678,187.460495 
	C449.999908,191.215225 447.793915,194.277557 444.534760,194.575409 
	C438.923401,195.088226 438.634155,198.737656 437.985382,202.717941 
	C435.301697,219.182922 427.384369,232.308929 412.994659,241.681213 
z"/>
<path fill="#EFC984" opacity="1.000000" stroke="none" 
	d="
M385.005188,141.993103 
	C384.829010,142.023117 384.652863,142.053116 384.214905,142.143860 
	C373.238831,142.403580 362.858856,140.655411 352.616425,137.472946 
	C345.951324,135.402008 338.512177,141.030014 337.985596,147.954712 
	C336.601776,166.152161 335.649384,167.043030 317.580505,167.044083 
	C316.749146,167.044128 315.917755,167.048004 314.630432,167.055664 
	C314.116394,153.911057 313.420074,140.725342 314.149017,127.618927 
	C315.258057,107.678993 332.309113,91.402710 351.586456,91.946579 
	C362.401306,92.251694 373.231415,92.016151 384.520264,92.556351 
	C384.992310,109.390030 384.998749,125.691566 385.005188,141.993103 
z"/>
<path fill="#EABC6B" opacity="1.000000" stroke="none" 
	d="
M385.456787,142.003723 
	C384.998749,125.691566 384.992310,109.390030 384.982269,92.630981 
	C394.449127,92.116142 403.922943,91.881622 413.388947,92.060173 
	C420.382233,92.192085 426.327759,98.324272 426.998901,105.478378 
	C427.628357,112.187958 428.936615,113.489464 435.566223,114.001793 
	C443.521027,114.616524 449.992096,121.652992 449.996368,129.733337 
	C450.002808,141.867462 449.985565,154.001602 449.901794,166.605499 
	C446.160675,167.066132 442.495605,167.093277 438.831696,167.040298 
	C431.322083,166.931732 427.085571,162.733093 426.951935,155.304688 
	C426.918976,153.472900 427.027496,151.634583 426.914886,149.808884 
	C426.336823,140.436508 418.920227,135.587906 409.837830,137.797546 
	C401.984222,139.708221 393.894012,140.646317 385.456787,142.003723 
z"/>
<path fill="#FEDCCD" opacity="1.000000" stroke="none" 
	d="
M158.026184,362.466797 
	C154.610046,367.328552 151.936203,372.854492 147.538605,375.848999 
	C142.410751,379.340820 135.776260,380.620026 129.398453,382.931824 
	C114.704964,382.811707 104.998718,375.562286 98.290054,363.073364 
	C97.988281,358.936218 97.995743,354.954742 98.028091,350.517395 
	C98.052979,350.061523 98.531342,350.019043 98.762695,349.955566 
	C114.243233,350.442993 129.489548,351.126831 144.743500,351.456757 
	C148.858841,351.545746 152.997437,350.560974 157.546082,350.077332 
	C157.979904,354.060883 157.993027,358.036194 158.026184,362.466797 
z"/>
<path fill="#375F7E" opacity="1.000000" stroke="none" 
	d="
M351.509186,272.793640 
	C353.184814,274.352570 354.360138,275.965240 355.881439,277.123535 
	C364.476654,283.667847 373.154907,290.103149 381.848389,297.130798 
	C374.789703,303.437500 367.687439,309.188965 360.585205,314.940430 
	C357.506226,313.560120 353.836487,312.831421 351.459534,310.676697 
	C344.456512,304.328430 337.980377,297.400269 331.268036,290.729309 
	C328.122162,287.602844 326.328644,284.125793 327.985107,279.210510 
	C334.852936,273.537689 341.832336,268.664246 351.509186,272.793640 
z"/>
<path fill="#375F7D" opacity="1.000000" stroke="none" 
	d="
M383.028534,297.197754 
	C392.984497,289.330261 402.940460,281.462799 413.023315,273.273560 
	C417.381287,270.044434 421.743561,270.599670 426.071930,272.604218 
	C429.305878,274.101929 432.448303,275.797180 435.952515,277.909546 
	C436.548096,278.604309 436.822662,278.793945 437.097229,278.983612 
	C437.097229,278.983612 437.033813,278.947571 437.056824,278.918762 
	C437.902466,284.489258 435.601227,288.509155 431.445801,292.252930 
	C426.315918,296.874634 421.827393,302.208191 416.663452,307.637939 
	C412.307343,310.409271 409.518219,315.171173 403.550659,313.989075 
	C396.492767,308.325287 389.760651,302.761505 383.028534,297.197754 
z"/>
<path fill="#407093" opacity="1.000000" stroke="none" 
	d="
M436.996094,278.741394 
	C436.822662,278.793945 436.548096,278.604309 436.146606,278.196777 
	C436.311432,278.152313 436.603210,278.325714 436.996094,278.741394 
z"/>
<path fill="#4B80AA" opacity="1.000000" stroke="none" 
	d="
M403.876404,314.089050 
	C409.518219,315.171173 412.307343,310.409271 416.605042,307.973938 
	C433.489441,314.406342 443.818085,326.202484 447.365387,343.724060 
	C447.756317,345.655060 447.966492,347.656342 447.973419,349.626068 
	C448.035400,367.246521 448.032928,384.867218 448.104797,402.893555 
	C435.411560,403.461273 422.662994,403.623291 409.358704,403.394592 
	C408.533020,402.044647 408.220856,401.095001 407.999176,400.124725 
	C402.962555,378.081940 397.935852,356.036926 393.080109,333.691193 
	C396.794098,326.956390 400.335266,320.522705 403.876404,314.089050 
z"/>
<path fill="#DC646F" opacity="1.000000" stroke="none" 
	d="
M392.907288,333.992310 
	C397.935852,356.036926 402.962555,378.081940 407.999176,400.124725 
	C408.220856,401.095001 408.533020,402.044647 408.891113,403.351959 
	C391.544128,403.744781 374.109039,403.789551 356.184601,403.752014 
	C360.827087,380.708923 365.958954,357.748169 371.643616,334.394806 
	C379.100037,333.998932 386.003662,333.995636 392.907288,333.992310 
z"/>
<path fill="#E08087" opacity="1.000000" stroke="none" 
	d="
M393.080109,333.691223 
	C386.003662,333.995636 379.100037,333.998932 371.752197,334.002899 
	C367.827820,327.879974 364.347626,321.756378 360.726318,315.286621 
	C367.687439,309.188965 374.789703,303.437500 382.072418,297.400726 
	C382.252899,297.115417 382.651031,297.071259 382.839783,297.134521 
	C389.760651,302.761505 396.492767,308.325287 403.550659,313.989075 
	C400.335266,320.522705 396.794098,326.956390 393.080109,333.691223 
z"/>
</svg>